<svg width="210" height="32" viewBox="0 0 210 32" fill="none" xmlns="http://www.w3.org/2000/svg">
<path d="M0.938 26V8.473H3.828C4.41733 8.473 4.80833 8.745 5.001 9.289L5.273 10.428C5.579 10.1107 5.89067 9.816 6.208 9.544C6.53667 9.272 6.888 9.03967 7.262 8.847C7.636 8.643 8.03833 8.48433 8.469 8.371C8.911 8.25767 9.387 8.201 9.897 8.201C10.9737 8.201 11.8633 8.49 12.566 9.068C13.2687 9.63467 13.8013 10.394 14.164 11.346C14.4473 10.7907 14.793 10.3147 15.201 9.918C15.6203 9.51 16.0737 9.18133 16.561 8.932C17.0597 8.68267 17.581 8.50133 18.125 8.388C18.6803 8.26333 19.2357 8.201 19.791 8.201C20.777 8.201 21.6497 8.34833 22.409 8.643C23.1683 8.93767 23.803 9.374 24.313 9.952C24.8343 10.5187 25.231 11.2157 25.503 12.043C25.775 12.8703 25.911 13.811 25.911 14.865V26H21.219V14.865C21.219 12.8137 20.3407 11.788 18.584 11.788C18.1873 11.788 17.819 11.856 17.479 11.992C17.1503 12.1167 16.8557 12.3093 16.595 12.57C16.3457 12.8307 16.1473 13.1537 16 13.539C15.864 13.9243 15.796 14.3663 15.796 14.865V26H11.104V14.865C11.104 13.7543 10.883 12.9667 10.441 12.502C10.0103 12.026 9.37 11.788 8.52 11.788C7.976 11.788 7.46033 11.9183 6.973 12.179C6.497 12.4283 6.04933 12.7797 5.63 13.233V26H0.938ZM45.3795 8.473L35.9275 30.709C35.7801 31.0263 35.5988 31.2643 35.3835 31.423C35.1795 31.5817 34.8508 31.661 34.3975 31.661H30.9125L34.2275 24.589L27.1895 8.473H31.3035C31.6775 8.473 31.9665 8.558 32.1705 8.728C32.3745 8.898 32.5218 9.09633 32.6125 9.323L35.9445 17.704C36.0691 18.0327 36.1768 18.367 36.2675 18.707C36.3695 19.0357 36.4658 19.3643 36.5565 19.693C36.7605 19.0243 36.9928 18.3557 37.2535 17.687L40.3475 9.323C40.4381 9.07367 40.6025 8.86967 40.8405 8.711C41.0785 8.55233 41.3391 8.473 41.6225 8.473H45.3795ZM55.9003 13.607C57.4983 13.607 58.6657 13.2217 59.4023 12.451C60.1503 11.6803 60.5243 10.6263 60.5243 9.289C60.5243 8.677 60.428 8.12167 60.2353 7.623C60.054 7.113 59.7707 6.68233 59.3853 6.331C59.0113 5.96833 58.5353 5.69067 57.9573 5.498C57.3793 5.30533 56.6937 5.209 55.9003 5.209H52.6703V13.607H55.9003ZM55.9003 1.333C57.589 1.333 59.0453 1.53133 60.2693 1.928C61.5047 2.32467 62.519 2.88 63.3123 3.594C64.1057 4.29667 64.6893 5.13533 65.0633 6.11C65.4487 7.08466 65.6413 8.14433 65.6413 9.289C65.6413 10.5017 65.443 11.6123 65.0463 12.621C64.6497 13.6297 64.049 14.4967 63.2443 15.222C62.4397 15.9473 61.4253 16.514 60.2013 16.922C58.9773 17.3187 57.5437 17.517 55.9003 17.517H52.6703V26H47.5703V1.333H55.9003ZM82.2487 6.059C82.0901 6.31967 81.9257 6.51233 81.7557 6.637C81.5971 6.75033 81.3874 6.807 81.1267 6.807C80.8774 6.807 80.6054 6.722 80.3107 6.552C80.0274 6.37067 79.6931 6.178 79.3077 5.974C78.9224 5.77 78.4804 5.583 77.9817 5.413C77.4831 5.23166 76.8994 5.141 76.2307 5.141C75.0521 5.141 74.1681 5.40733 73.5787 5.94C72.9894 6.46133 72.6947 7.147 72.6947 7.997C72.6947 8.541 72.8534 8.99433 73.1707 9.357C73.4994 9.70833 73.9244 10.0143 74.4457 10.275C74.9784 10.5357 75.5791 10.768 76.2477 10.972C76.9164 11.176 77.6021 11.4027 78.3047 11.652C79.0074 11.89 79.6931 12.1733 80.3617 12.502C81.0304 12.8307 81.6254 13.2443 82.1467 13.743C82.6794 14.2417 83.1044 14.8537 83.4217 15.579C83.7504 16.293 83.9147 17.1657 83.9147 18.197C83.9147 19.319 83.7164 20.373 83.3197 21.359C82.9344 22.3337 82.3734 23.1893 81.6367 23.926C80.9001 24.6513 79.9877 25.2237 78.8997 25.643C77.8231 26.0623 76.5991 26.272 75.2277 26.272C74.4457 26.272 73.6637 26.1927 72.8817 26.034C72.1111 25.8753 71.3631 25.6543 70.6377 25.371C69.9237 25.0877 69.2494 24.7477 68.6147 24.351C67.9801 23.9543 67.4247 23.5123 66.9487 23.025L68.4447 20.611C68.5694 20.4297 68.7337 20.2823 68.9377 20.169C69.1417 20.0443 69.3571 19.982 69.5837 19.982C69.8897 19.982 70.2127 20.0953 70.5527 20.322C70.8927 20.5487 71.2837 20.798 71.7257 21.07C72.1677 21.342 72.6777 21.5913 73.2557 21.818C73.8451 22.0447 74.5477 22.158 75.3637 22.158C76.5537 22.158 77.4717 21.886 78.1177 21.342C78.7751 20.798 79.1037 19.9877 79.1037 18.911C79.1037 18.2877 78.9394 17.7833 78.6107 17.398C78.2934 17.0127 77.8741 16.6897 77.3527 16.429C76.8314 16.1683 76.2364 15.9473 75.5677 15.766C74.8991 15.5733 74.2134 15.3637 73.5107 15.137C72.8081 14.9103 72.1224 14.6383 71.4537 14.321C70.7851 14.0037 70.1901 13.5843 69.6687 13.063C69.1474 12.5417 68.7224 11.8957 68.3937 11.125C68.0764 10.3543 67.9177 9.39667 67.9177 8.252C67.9177 7.334 68.0991 6.44433 68.4617 5.583C68.8244 4.72167 69.3571 3.95667 70.0597 3.288C70.7624 2.61933 71.6237 2.081 72.6437 1.673C73.6751 1.265 74.8537 1.061 76.1797 1.061C77.6644 1.061 79.0357 1.29333 80.2937 1.758C81.5631 2.21133 82.6341 2.846 83.5067 3.662L82.2487 6.059ZM108.744 1.333V26H106.109C105.713 26 105.378 25.9377 105.106 25.813C104.834 25.677 104.568 25.4503 104.307 25.133L92.0163 9.493C92.0503 9.88967 92.073 10.2807 92.0843 10.666C92.107 11.0513 92.1183 11.4083 92.1183 11.737V26H87.6133V1.333H90.2993C90.5146 1.333 90.696 1.34433 90.8433 1.367C91.002 1.37833 91.1436 1.418 91.2683 1.486C91.393 1.54267 91.512 1.622 91.6253 1.724C91.7386 1.826 91.8633 1.962 91.9993 2.132L104.375 17.84C104.33 17.4093 104.296 16.9957 104.273 16.599C104.251 16.191 104.239 15.8057 104.239 15.443V1.333H108.744ZM126.932 16.633L124.263 9.085C124.105 8.68833 123.935 8.22367 123.753 7.691C123.583 7.15833 123.419 6.58033 123.26 5.957C123.102 6.59167 122.932 7.181 122.75 7.725C122.58 8.25767 122.416 8.72233 122.257 9.119L119.605 16.633H126.932ZM135.5 26H131.539C131.097 26 130.735 25.898 130.451 25.694C130.179 25.4787 129.975 25.2067 129.839 24.878L128.173 20.169H118.347L116.681 24.878C116.568 25.1613 116.37 25.422 116.086 25.66C115.803 25.8867 115.446 26 115.015 26H111.02L120.659 1.333H125.878L135.5 26ZM136.474 23.535C136.474 23.161 136.542 22.8097 136.678 22.481C136.826 22.141 137.024 21.852 137.273 21.614C137.523 21.3647 137.812 21.172 138.14 21.036C138.48 20.8887 138.849 20.815 139.245 20.815C139.631 20.815 139.993 20.8887 140.333 21.036C140.673 21.172 140.968 21.3647 141.217 21.614C141.467 21.852 141.659 22.141 141.795 22.481C141.943 22.8097 142.016 23.161 142.016 23.535C142.016 23.9203 141.943 24.2773 141.795 24.606C141.659 24.9347 141.467 25.2237 141.217 25.473C140.968 25.711 140.673 25.898 140.333 26.034C139.993 26.17 139.631 26.238 139.245 26.238C138.849 26.238 138.48 26.17 138.14 26.034C137.812 25.898 137.523 25.711 137.273 25.473C137.024 25.2237 136.826 24.9347 136.678 24.606C136.542 24.2773 136.474 23.9203 136.474 23.535ZM145.239 26V8.473H148.129C148.718 8.473 149.109 8.745 149.302 9.289L149.574 10.428C149.88 10.1107 150.191 9.816 150.509 9.544C150.837 9.272 151.189 9.03967 151.563 8.847C151.937 8.643 152.339 8.48433 152.77 8.371C153.212 8.25767 153.688 8.201 154.198 8.201C155.274 8.201 156.164 8.49 156.867 9.068C157.569 9.63467 158.102 10.394 158.465 11.346C158.748 10.7907 159.094 10.3147 159.502 9.918C159.921 9.51 160.374 9.18133 160.862 8.932C161.36 8.68267 161.882 8.50133 162.426 8.388C162.981 8.26333 163.536 8.201 164.092 8.201C165.078 8.201 165.95 8.34833 166.71 8.643C167.469 8.93767 168.104 9.374 168.614 9.952C169.135 10.5187 169.532 11.2157 169.804 12.043C170.076 12.8703 170.212 13.811 170.212 14.865V26H165.52V14.865C165.52 12.8137 164.641 11.788 162.885 11.788C162.488 11.788 162.12 11.856 161.78 11.992C161.451 12.1167 161.156 12.3093 160.896 12.57C160.646 12.8307 160.448 13.1537 160.301 13.539C160.165 13.9243 160.097 14.3663 160.097 14.865V26H155.405V14.865C155.405 13.7543 155.184 12.9667 154.742 12.502C154.311 12.026 153.671 11.788 152.821 11.788C152.277 11.788 151.761 11.9183 151.274 12.179C150.798 12.4283 150.35 12.7797 149.931 13.233V26H145.239ZM184.755 13.029C184.313 12.519 183.832 12.162 183.31 11.958C182.8 11.754 182.256 11.652 181.678 11.652C181.112 11.652 180.596 11.7597 180.131 11.975C179.667 12.1903 179.264 12.5303 178.924 12.995C178.596 13.4483 178.341 14.032 178.159 14.746C177.978 15.46 177.887 16.31 177.887 17.296C177.887 18.2707 177.961 19.098 178.108 19.778C178.256 20.458 178.465 21.0077 178.737 21.427C179.021 21.8463 179.361 22.1523 179.757 22.345C180.154 22.5263 180.596 22.617 181.083 22.617C181.911 22.617 182.602 22.4527 183.157 22.124C183.724 21.7953 184.257 21.3307 184.755 20.73V13.029ZM189.447 0.652999V26H186.557C185.957 26 185.571 25.728 185.401 25.184L185.01 23.654C184.659 24.0393 184.285 24.3907 183.888 24.708C183.503 25.0253 183.084 25.303 182.63 25.541C182.177 25.7677 181.69 25.9433 181.168 26.068C180.647 26.1927 180.08 26.255 179.468 26.255C178.528 26.255 177.666 26.0567 176.884 25.66C176.102 25.2633 175.422 24.6853 174.844 23.926C174.278 23.1553 173.836 22.2147 173.518 21.104C173.201 19.9933 173.042 18.724 173.042 17.296C173.042 15.9927 173.218 14.78 173.569 13.658C173.932 12.536 174.442 11.567 175.099 10.751C175.757 9.935 176.55 9.29467 177.479 8.83C178.409 8.36533 179.44 8.133 180.573 8.133C181.525 8.133 182.324 8.27467 182.97 8.558C183.628 8.84133 184.223 9.22667 184.755 9.714V0.652999H189.447ZM198.042 21.376C198.484 21.886 198.96 22.243 199.47 22.447C199.991 22.651 200.53 22.753 201.085 22.753C201.663 22.753 202.184 22.651 202.649 22.447C203.125 22.2317 203.533 21.8973 203.873 21.444C204.213 20.9793 204.474 20.3787 204.655 19.642C204.836 18.9053 204.927 18.0157 204.927 16.973C204.927 16.0437 204.853 15.256 204.706 14.61C204.559 13.9527 204.338 13.4143 204.043 12.995C203.76 12.5757 203.408 12.2697 202.989 12.077C202.57 11.8843 202.082 11.788 201.527 11.788C200.79 11.788 200.15 11.9523 199.606 12.281C199.073 12.5983 198.552 13.0687 198.042 13.692V21.376ZM198.042 10.496C198.733 9.80467 199.498 9.24933 200.337 8.83C201.176 8.41067 202.116 8.201 203.159 8.201C204.168 8.201 205.074 8.405 205.879 8.813C206.695 9.20967 207.386 9.782 207.953 10.53C208.531 11.278 208.973 12.1847 209.279 13.25C209.596 14.304 209.755 15.4883 209.755 16.803C209.755 18.2197 209.574 19.5117 209.211 20.679C208.86 21.835 208.355 22.8267 207.698 23.654C207.041 24.4813 206.253 25.1217 205.335 25.575C204.428 26.0283 203.414 26.255 202.292 26.255C201.748 26.255 201.261 26.1983 200.83 26.085C200.399 25.983 200.003 25.8357 199.64 25.643C199.277 25.4503 198.943 25.2237 198.637 24.963C198.331 24.691 198.042 24.3907 197.77 24.062L197.583 25.116C197.504 25.4447 197.373 25.677 197.192 25.813C197.011 25.9377 196.767 26 196.461 26H193.35V0.652999H198.042V10.496Z" fill="#B60005"/>
</svg>
